<svg width="20" height="24" viewBox="0 0 20 24" fill="none" xmlns="http://www.w3.org/2000/svg">
<path fill-rule="evenodd" clip-rule="evenodd" d="M0 19.9286V3.85714C0 2.83417 0.412266 1.85309 1.1461 1.12973C1.87994 0.406376 2.87524 0 3.91304 0L16.087 0C17.1248 0 18.1201 0.406376 18.8539 1.12973C19.5877 1.85309 20 2.83417 20 3.85714V17.1429C20 17.4839 19.8626 17.8109 19.618 18.052C19.3734 18.2931 19.0416 18.4286 18.6957 18.4286H18.2609V21.4286H18.6957C19.0416 21.4286 19.3734 21.564 19.618 21.8051C19.8626 22.0463 20 22.3733 20 22.7143C20 23.0553 19.8626 23.3823 19.618 23.6234C19.3734 23.8645 19.0416 24 18.6957 24H4.13043C3.03498 24 1.98438 23.571 1.20978 22.8075C0.43517 22.044 0 21.0084 0 19.9286ZM15.6522 18.4286H4.13043C3.72684 18.4286 3.33978 18.5866 3.0544 18.8679C2.76902 19.1492 2.6087 19.5307 2.6087 19.9286C2.6087 20.3264 2.76902 20.7079 3.0544 20.9892C3.33978 21.2705 3.72684 21.4286 4.13043 21.4286H15.6522V18.4286ZM16.6261 8.18057C16.5528 8.04107 16.442 7.92412 16.3058 7.8425C16.1696 7.76087 16.0133 7.7177 15.8539 7.71771H11.8296C11.5989 7.71771 11.3778 7.80802 11.2147 7.96877C11.0516 8.12951 10.96 8.34753 10.96 8.57486C10.96 8.80219 11.0516 9.0202 11.2147 9.18095C11.3778 9.34169 11.5989 9.432 11.8296 9.432H14.1739L10.8678 14.0331C10.7756 14.1614 10.721 14.3122 10.71 14.469C10.6989 14.6259 10.7318 14.7827 10.805 14.9223C10.8783 15.0619 10.9891 15.179 11.1253 15.2607C11.2615 15.3425 11.4179 15.3857 11.5774 15.3857H16.1061C16.3367 15.3857 16.5579 15.2954 16.721 15.1347C16.884 14.9739 16.9757 14.7559 16.9757 14.5286C16.9757 14.3012 16.884 14.0832 16.721 13.9225C16.5579 13.7617 16.3367 13.6714 16.1061 13.6714H13.2591L16.5635 9.07029C16.656 8.94209 16.711 8.79126 16.7223 8.63433C16.7337 8.4774 16.6992 8.32041 16.6261 8.18057ZM7.93913 4.50857C7.83445 4.20157 7.63461 3.93471 7.36782 3.74566C7.10103 3.55661 6.78075 3.45491 6.45217 3.45491C6.1236 3.45491 5.80332 3.55661 5.53653 3.74566C5.26973 3.93471 5.0699 4.20157 4.96522 4.50857L3.78783 7.98857C3.78347 8.00105 3.77941 8.01362 3.77565 8.02629L3.10957 9.99086C3.07337 10.0978 3.05889 10.2107 3.06696 10.3232C3.07503 10.4356 3.10549 10.5454 3.1566 10.6462C3.20772 10.7471 3.27848 10.837 3.36485 10.9109C3.45123 10.9848 3.55152 11.0412 3.66 11.0769C3.87909 11.1489 4.11825 11.1322 4.32487 11.0305C4.42717 10.9801 4.51841 10.9104 4.59337 10.8252C4.66833 10.7401 4.72554 10.6412 4.76174 10.5343L5.2313 9.13543H7.66956L8.14261 10.5343C8.21572 10.75 8.37277 10.9283 8.57922 11.0299C8.78568 11.1315 9.02462 11.1481 9.24348 11.076C9.46234 11.0039 9.6432 10.8491 9.74626 10.6456C9.84932 10.4421 9.86615 10.2066 9.79304 9.99086L9.1287 8.02629C9.12436 8.01361 9.11972 8.00103 9.11478 7.98857L7.93913 4.50857ZM5.8087 7.41943L6.4487 5.53029L7.08696 7.41943H5.8087Z" fill="#B596FF"/>
</svg>
